<svg display="none" width="0" height="0" version="1.1" xmlns="http://www.w3.org/2000/svg" xmlns:xlink="http://www.w3.org/1999/xlink">
<defs>
<symbol id="icon-star" viewBox="0 0 951 1024">
	<title>star</title>
	<path class="path1" d="M950.857 369.714q0 12.571-14.857 27.429l-207.429 202.286 49.143 285.714q0.571 4 0.571 11.429 0 12-6 20.286t-17.429 8.286q-10.857 0-22.857-6.857l-256.571-134.857-256.571 134.857q-12.571 6.857-22.857 6.857-12 0-18-8.286t-6-20.286q0-3.429 1.143-11.429l49.143-285.714-208-202.286q-14.286-15.429-14.286-27.429 0-21.143 32-26.286l286.857-41.714 128.571-260q10.857-23.429 28-23.429t28 23.429l128.571 260 286.857 41.714q32 5.143 32 26.286z"></path>
</symbol>
<symbol id="icon-user" viewBox="0 0 805 1024">
	<title>user</title>
	<path class="path1" d="M804.571 802.857q0 68.571-41.714 108.286t-110.857 39.714h-499.429q-69.143 0-110.857-39.714t-41.714-108.286q0-30.286 2-59.143t8-62.286 15.143-62 24.571-55.714 35.429-46.286 48.857-30.571 63.714-11.429q5.143 0 24 12.286t42.571 27.429 61.714 27.429 76.286 12.286 76.286-12.286 61.714-27.429 42.571-27.429 24-12.286q34.857 0 63.714 11.429t48.857 30.571 35.429 46.286 24.571 55.714 15.143 62 8 62.286 2 59.143zM621.714 292.571q0 90.857-64.286 155.143t-155.143 64.286-155.143-64.286-64.286-155.143 64.286-155.143 155.143-64.286 155.143 64.286 64.286 155.143z"></path>
</symbol>
<symbol id="icon-book" viewBox="0 0 951 1024">
	<title>book</title>
	<path class="path1" d="M936.571 273.143q22.857 32.571 10.286 73.714l-157.143 517.714q-10.857 36.571-43.714 61.429t-70 24.857h-527.429q-44 0-84.857-30.571t-56.857-75.143q-13.714-38.286-1.143-72.571 0-2.286 1.714-15.429t2.286-21.143q0.571-4.571-1.714-12.286t-1.714-11.143q1.143-6.286 4.571-12t9.429-13.429 9.429-13.429q13.143-21.714 25.714-52.286t17.143-52.286q1.714-5.714 0.286-17.143t-0.286-16q1.714-6.286 9.714-16t9.714-13.143q12-20.571 24-52.571t14.286-51.429q0.571-5.143-1.429-18.286t0.286-16q2.286-7.429 12.571-17.429t12.571-12.857q10.857-14.857 24.286-48.286t15.714-55.143q0.571-4.571-1.714-14.571t-1.143-15.143q1.143-4.571 5.143-10.286t10.286-13.143 9.714-12q4.571-6.857 9.429-17.429t8.571-20 9.143-20.571 11.143-18.286 15.143-13.429 20.571-6.571 27.143 3.143l-0.571 1.714q21.714-5.143 29.143-5.143h434.857q42.286 0 65.143 32t10.286 74.286l-156.571 517.714q-20.571 68-40.857 87.714t-73.429 19.714h-496.571q-15.429 0-21.714 8.571-6.286 9.143-0.571 24.571 13.714 40 82.286 40h527.429q16.571 0 32-8.857t20-23.714l171.429-564q4-12.571 2.857-32.571 21.714 8.571 33.714 24.571zM328.571 274.286q-2.286 7.429 1.143 12.857t11.429 5.429h347.429q7.429 0 14.571-5.429t9.429-12.857l12-36.571q2.286-7.429-1.143-12.857t-11.429-5.429h-347.429q-7.429 0-14.571 5.429t-9.429 12.857zM281.143 420.571q-2.286 7.429 1.143 12.857t11.429 5.429h347.429q7.429 0 14.571-5.429t9.429-12.857l12-36.571q2.286-7.429-1.143-12.857t-11.429-5.429h-347.429q-7.429 0-14.571 5.429t-9.429 12.857z"></path>
</symbol>
<symbol id="icon-briefcase" viewBox="0 0 1024 1024">
	<title>briefcase</title>
	<path class="path1" d="M365.714 146.286h292.571v-73.143h-292.571v73.143zM1024 512v274.286q0 37.714-26.857 64.571t-64.571 26.857h-841.143q-37.714 0-64.571-26.857t-26.857-64.571v-274.286h384v91.429q0 14.857 10.857 25.714t25.714 10.857h182.857q14.857 0 25.714-10.857t10.857-25.714v-91.429h384zM585.143 512v73.143h-146.286v-73.143h146.286zM1024 237.714v219.429h-1024v-219.429q0-37.714 26.857-64.571t64.571-26.857h201.143v-91.429q0-22.857 16-38.857t38.857-16h329.143q22.857 0 38.857 16t16 38.857v91.429h201.143q37.714 0 64.571 26.857t26.857 64.571z"></path>
</symbol>
</defs>
</svg>
